<?xml version="1.0" encoding="UTF-8"?>
<svg id="Calque_2" data-name="Calque 2" xmlns="http://www.w3.org/2000/svg" viewBox="0 0 450.3 484.57">
  <defs>
    <style>
      .cls-1 {
        fill: #f39200;
      }

      .cls-2 {
        fill: #b2b2b2;
      }

      .cls-3 {
        fill: #ededed;
      }
    </style>
  </defs>
  <g>
    <path class="cls-2" d="m62.52,238.05c1.2,1.51,2.76,2.68,4.56,3.37,7.33,2.81,26.92,6.72,44.16-21.58,12.67-20.8,17.46-42.57,15.07-59.06-2.13-14.66-15.63-24.95-30.39-23.64l-85.94,7.6c-8.66.77-13,10.86-7.59,17.67l60.13,75.64Z"/>
    <path class="cls-3" d="m78.94,142.46c21.67-1.61,34.37-4.95,38.58,13.53,3.51,15.43,1.5,56.37-5.01,44.06C84.14,146.35-.91,157.57,7.38,150.7c10.29-8.52,41.95-6.04,71.56-8.24Z"/>
  </g>
  <g>
    <path class="cls-2" d="m346.18,348.18c.33-1.89.18-3.85-.5-5.65-2.76-7.35-12.81-24.62-45.42-18.77-23.97,4.29-43.45,15.13-54.21,27.85-9.57,11.31-8.33,28.23,2.43,38.42l62.64,59.33c6.32,5.98,16.75,2.54,18.26-6.03l16.8-95.15Z"/>
    <path class="cls-3" d="m263.71,399.22c-15.56-15.16-26.48-22.46-15.43-37.86,9.23-12.86,41.23-38.47,36.31-25.44-21.42,56.83,43.34,113.1,32.7,111.44-13.2-2.06-32.32-27.42-53.59-48.13Z"/>
  </g>
  <g>
    <path class="cls-2" d="m381.03,235.07c-1.32-1.4-2.98-2.44-4.83-2.97-7.54-2.18-27.39-4.43-42.18,25.22-10.87,21.79-13.81,43.89-10.04,60.12,3.35,14.43,17.67,23.54,32.27,21l85-14.81c8.57-1.49,12.04-11.92,6.07-18.25l-66.29-70.3Z"/>
    <path class="cls-3" d="m372.72,331.7c-21.45,3.43-33.83,7.82-39.58-10.24-4.8-15.08-6.24-56.04,1.28-44.32,32.79,51.12,116.6,32.78,108.91,40.32-9.54,9.36-41.29,9.55-70.61,14.24Z"/>
  </g>
  <g>
    <path class="cls-2" d="m333.35,147.45c-1.92.08-3.79.66-5.41,1.71-6.58,4.28-21.26,17.84-8.49,48.41,9.38,22.47,24.19,39.14,38.93,46.9,13.11,6.9,29.37,2.02,36.98-10.69l44.36-74c4.47-7.46-1.15-16.9-9.84-16.52l-96.53,4.2Z"/>
    <path class="cls-3" d="m401.05,216.91c-11.43,18.48-16.19,30.72-33.62,23.26-14.55-6.23-46.49-31.91-32.7-29.94,60.12,8.6,101.03-66.81,101.71-56.06.85,13.34-19.77,37.49-35.38,62.74Z"/>
  </g>
  <g>
    <path class="cls-2" d="m122.74,105.86c-.2,1.91.08,3.85.88,5.6,3.25,7.15,14.47,23.68,46.6,15.62,23.62-5.93,42.31-18.07,52.18-31.5,8.78-11.94,6.38-28.74-5.06-38.17L150.79,2.51c-6.71-5.53-16.88-1.38-17.8,7.26l-10.25,96.08Z"/>
    <path class="cls-3" d="m201.53,49.29c16.56,14.06,27.96,20.6,17.98,36.72-8.33,13.46-38.49,41.21-34.49,27.87C202.5,55.71,134.04,4.01,144.77,4.94c13.31,1.15,34.12,25.14,56.76,44.35Z"/>
  </g>
  <circle class="cls-1" cx="237.06" cy="241.27" r="169.66"/>
  <path class="cls-2" d="m261.61,402.49c1.14-1.55,1.88-3.36,2.08-5.27.81-7.81-.48-27.75-32.27-37.07-23.37-6.85-45.64-5.85-60.94.73-13.62,5.85-20.05,21.55-14.97,35.47l29.58,81.05c2.98,8.17,13.86,9.74,19.03,2.75l57.5-77.65Z"/>
  <path class="cls-3" d="m165.02,411.36c-7.16-20.51-13.67-31.92,3.09-40.77,14-7.39,54.06-16.03,43.85-6.56-44.53,41.3-11.69,120.55-20.47,114.32-10.9-7.74-16.69-38.96-26.47-66.99Z"/>
  <g>
    <path class="cls-2" d="m260.58,98.15c-1.66.97-3.05,2.35-3.99,4.03-3.82,6.86-10.49,25.69,15.07,46.78,18.78,15.5,39.65,23.35,56.31,23.33,14.82-.01,26.92-11.91,27.73-26.71l4.73-86.15c.48-8.69-8.9-14.41-16.41-10.03l-83.43,48.74Z"/>
    <path class="cls-3" d="m352.85,128.03c-1.49,21.67,0,34.72-18.89,36.26-15.78,1.28-56.01-6.55-42.89-11.23,57.19-20.43,58.21-106.21,63.83-97.02,6.97,11.4,0,42.38-2.04,72Z"/>
  </g>
  <g>
    <path class="cls-2" d="m113.88,359.21c1.91.19,3.85-.11,5.59-.92,7.12-3.31,23.58-14.64,15.28-46.71-6.1-23.58-18.38-42.18-31.87-51.95-12-8.69-28.78-6.17-38.13,5.33l-54.42,66.95c-5.49,6.75-1.26,16.89,7.39,17.75l96.15,9.55Z"/>
    <path class="cls-3" d="m56.75,280.84c13.94-16.66,20.39-28.1,36.58-18.25,13.52,8.23,41.48,38.19,28.12,34.28-58.29-17.06-109.49,51.78-108.64,41.04,1.06-13.32,24.89-34.3,43.94-57.08Z"/>
  </g>
  <ellipse class="cls-2" cx="291.15" cy="259.05" rx="64.25" ry="64.57"/>
  <path class="cls-3" d="m240.67,241.89c-2.89,4.42-4.76,9.43-5.4,14.67-2.06,16.73,6.14,53.22,45.31,53.22,27.16,0,5.76-5.3-9.05-15.64-6.85-4.78-9.05-7.82-14.81-15.64l-6.58-16.46c-.57-3.14-1.79-6.28-1.65-9.46l-.41-11.11c1.14-4.44,1.16-12.05-2.88-9.88l-4.53,10.29Z"/>
</svg>